<svg id="Layer_1" data-name="Layer 1" xmlns="http://www.w3.org/2000/svg" xmlns:xlink="http://www.w3.org/1999/xlink" viewBox="0 0 200 200"><defs><style>.cls-1{font-size:31.07px;fill:#fff;font-family:Courgette-Regular, Courgette;}.cls-2{fill-rule:evenodd;fill:url(#linear-gradient);}</style><linearGradient id="linear-gradient" x1="40.1" y1="91.77" x2="136.81" y2="91.77" gradientUnits="userSpaceOnUse"><stop offset="0" stop-color="#662d91"/><stop offset="1" stop-color="#9e1f63"/></linearGradient></defs><text class="cls-1" transform="translate(119.08 131.72)">iraj</text><path class="cls-2" d="M40.1,99.52c.51-5.59,4.22-11.62,7.29-16.27,13.66-20.66,41.2-37.58,66.35-32.79,23,4.38,27.64,24.16,19.06,43.89-4.27,9.91-13.79,21.91-21.6,29.23-5.11,4.81-11.55,7.81-16.89,1.56-6.67-7.85-5.94-29.35-8-40.53-5.49,10.13-17,42.33-18.91,46.49a8.32,8.32,0,0,1-1.75,2.79,7.59,7.59,0,0,1,0-3.29c1.51-10.7,9.65-41.55,15-51.15,3.54-6.38,9.45-7.94,12.6-.32,2.59,6.3,4.72,33.1,8.32,38.51a10.56,10.56,0,0,0,1.61-1.59A120,120,0,0,0,120,93.16c9-15.57,8.83-31.22-12-33.95-22-2.91-44.76,11.31-58.36,27.84C46.79,90.63,43,96.78,40.1,99.52ZM88.2,81.81a1.58,1.58,0,0,0,.39-.24,1.33,1.33,0,0,0-.39.24Zm14,36.46.12.1a.53.53,0,0,0-.12-.1Z"/></svg>